<svg width="46" height="46" viewBox="0 0 46 46" fill="none" xmlns="http://www.w3.org/2000/svg">
<g clip-path="url(#clip0_3163_800)">
<path d="M20.7679 0.474815C22.6993 0.0980139 25.7129 0.434105 27.6417 0.833269C27.8934 0.885365 28.591 1.01511 28.8103 1.08891C29.3916 1.20332 30.0468 1.44767 30.6364 1.65796C35.1607 3.27193 39.1328 6.30144 41.8347 10.2799C41.8432 10.2939 41.8519 10.308 41.8604 10.322C43.1198 12.158 44.1024 14.1693 44.7766 16.2913C44.9659 16.8729 45.0998 17.6164 45.2893 18.1588C45.3199 18.3686 45.3679 18.5542 45.4183 18.759C45.6006 19.522 45.8756 21.0279 46 21.8208V22.3779C45.7736 22.7365 45.8967 24.5107 45.7938 25.1619C45.6227 26.2514 45.4192 27.6142 45.1528 28.6691C45.0975 28.8804 44.9713 29.4217 44.9032 29.6022C44.8075 30.207 43.5164 33.4916 43.0981 33.9569L42.8892 34.3122C42.7271 34.7417 42.0607 35.7081 41.788 36.1195C41.5769 36.1546 41.5123 36.17 41.3025 36.143C41.2265 36.2562 40.9524 36.6536 40.9082 36.7574L40.9162 36.7768C40.9542 36.8698 40.9593 36.9046 40.9757 37.0032C41.0811 36.9121 41.1474 36.8388 41.28 36.7988C40.9799 37.344 39.8909 38.5084 39.44 38.9744C36.3643 42.1523 32.9909 44.0172 28.7717 45.2411C27.798 45.5268 26.8026 45.7325 25.7954 45.8565C25.6049 45.8817 25.4113 45.887 25.2515 45.9998H20.9834C20.5204 45.7756 19.2307 45.7559 18.6203 45.6081C15.9859 44.9688 13.5207 44.121 11.2025 42.69C6.46093 39.8052 2.92446 35.3008 1.24715 30.01C0.983322 29.1902 0.822969 28.3287 0.624562 27.4877C0.579313 27.25 0.529993 27.038 0.473018 26.8039C0.381317 26.375 0.308735 26.0114 0.244132 25.5749C0.209315 25.3534 0.216659 25.0524 0 24.9705V21.6689C0.067434 21.6269 0.124053 21.5819 0.139257 21.4968C0.290254 20.6522 0.428639 19.7888 0.61857 18.9525C0.971561 17.264 1.3731 15.6694 2.08014 14.0839C2.9546 12.123 4.04106 10.3644 5.39283 8.69398C9.22273 4.02085 14.7546 1.06361 20.7679 0.474815ZM44.0026 28.5441C44.15 28.5435 44.17 28.5664 44.2862 28.4977C44.5219 28.0677 44.4967 27.2196 44.3499 26.753C44.3063 26.6142 44.312 26.5296 44.3342 26.389C44.3515 25.9018 44.4738 25.0877 44.5292 24.5867C44.676 23.258 44.715 21.6462 44.4474 20.3369C44.4706 20.3206 44.5327 20.2944 44.5616 20.281L44.693 20.3794C44.7529 20.1551 44.6116 19.5187 44.5633 19.2791L44.4287 18.609C44.3798 18.1247 44.2989 17.6557 44.0983 17.21C43.9069 16.6385 43.7828 16.1678 43.3397 15.7497C43.3006 15.5269 42.882 14.4257 42.7787 14.1993C42.7928 13.4862 42.4178 12.9912 42.0822 12.3414C41.8914 12.0047 41.7905 11.8586 41.5514 11.5533C41.3617 11.2394 41.1764 10.9149 40.9446 10.6312C40.765 10.391 40.5426 10.1469 40.3373 9.926C39.4583 8.98044 38.7883 7.8614 37.7679 7.04112C37.5899 6.81314 37.1555 6.48036 36.9133 6.28639C33.8111 3.79761 30.3841 2.14885 26.4372 1.55261C25.2652 1.37555 23.6771 1.11895 22.5138 1.29454C21.0536 1.51494 19.4246 1.67386 18.0024 1.98972C14.6404 2.76479 11.5218 4.35824 8.92369 6.62851C6.79035 8.46357 5.10236 10.4283 3.78199 12.9244C1.44261 17.3469 0.675877 22.5371 1.65015 27.4468C1.74729 27.9347 1.76844 28.4714 1.90343 28.9559C2.04434 29.4707 2.39868 30.053 2.59671 30.5758C2.85833 31.2665 3.12619 32.0027 3.4419 32.668C4.85695 35.6097 6.91599 38.1953 9.46634 40.2328C10.9896 41.4377 12.6606 42.3903 14.4443 43.1708C15.2115 43.5064 16.0599 43.6589 16.8878 43.9881C20.1713 45.295 23.851 45.1315 27.2761 44.5702C27.7774 44.4881 28.5426 44.1421 29.0626 44.0016C33.0549 42.9223 36.8828 40.5214 39.5098 37.315C40.4213 36.2024 41.7544 34.2749 42.3355 32.9163C42.3923 32.9643 42.4186 33.0263 42.4506 33.0934L42.4688 33.132C42.8354 33.0313 43.0231 31.9287 42.9405 31.569C43.4245 30.6111 43.7815 29.5942 44.0026 28.5441Z" fill="#FEFEFE"/>
<path d="M0.244141 25.575C0.425262 25.0406 0.284968 23.1218 0.398738 22.9248C0.417139 25.0037 0.581631 27.0174 1.10956 29.0393C1.22513 29.482 1.41559 29.9066 1.56415 30.339C2.80852 33.9611 4.73657 36.9935 7.46912 39.6798C10.1886 42.3533 14.0363 44.267 17.7079 45.1801C18.0826 45.2735 18.4577 45.3912 18.8373 45.4604C19.2845 45.5422 19.7512 45.5691 20.2036 45.6131C20.6376 45.6558 21.0743 45.716 21.5109 45.7133C22.0282 45.7097 22.5495 45.6531 23.0672 45.6311C24.0453 45.5898 25.0275 45.5741 25.9996 45.4483C30.1312 44.8832 34.0246 43.182 37.2464 40.5345C38.2647 39.7025 39.1615 38.7166 40.1236 37.8226C40.4887 37.4834 40.6463 37.0935 40.9082 36.7575L40.9162 36.7769C40.9542 36.8699 40.9593 36.9047 40.9757 37.0034C41.0811 36.9123 41.1474 36.839 41.28 36.7989C40.9799 37.3441 39.8909 38.5086 39.44 38.9745C36.3643 42.1524 32.9909 44.0173 28.7717 45.2412C27.798 45.5269 26.8026 45.7326 25.7955 45.8566C25.6049 45.8818 25.4113 45.8872 25.2515 45.9999H20.9834C20.5204 45.7758 19.2307 45.756 18.6204 45.6082C15.9859 44.969 13.5207 44.1211 11.2025 42.6902C6.46094 39.8053 2.92447 35.3009 1.24716 30.0102C0.983331 29.1903 0.822978 28.3289 0.624571 27.4878C0.579322 27.2501 0.530002 27.0381 0.473027 26.804C0.381326 26.3751 0.308744 26.0116 0.244141 25.575Z" fill="#171717"/>
<path d="M28.8104 1.08887C29.3916 1.20328 30.0469 1.44763 30.6364 1.65792C35.1608 3.27189 39.1329 6.3014 41.8347 10.2799C41.8433 10.2939 41.8519 10.3079 41.8605 10.322C43.1199 12.158 44.1024 14.1693 44.7767 16.2912C44.966 16.8729 45.0998 17.6164 45.2894 18.1588C45.32 18.3686 45.368 18.5542 45.4183 18.759L45.3815 19.227C45.3424 19.0738 45.2818 18.9112 45.2292 18.761C45.1663 18.3658 44.9372 17.6753 44.8333 17.2355C44.4908 16.2272 44.1136 14.7279 43.5941 13.8742C43.0262 13.5889 43.3099 13.3681 43.2456 13.2046C42.9329 12.4093 42.2685 11.113 41.7055 10.4669C41.3459 10.0037 41.1018 9.57769 40.6839 9.0915C37.3273 5.18675 33.6768 2.69886 28.7549 1.2108L28.8104 1.08887Z" fill="#171717"/>
<path d="M0.618164 18.9528C0.971156 17.2643 1.37269 15.6697 2.07973 14.0842C2.9542 12.1232 4.04065 10.3646 5.39242 8.69426C9.22233 4.02113 14.7542 1.0639 20.7675 0.475098C20.8437 0.568742 20.8524 0.618457 20.8905 0.731251C20.1564 0.841898 19.4215 0.9468 18.6857 1.04594C13.481 1.72341 8.44473 5.09197 5.23362 9.17789C3.44338 11.4559 1.79177 14.3054 1.27541 17.1873C1.15248 17.8734 0.853132 18.5898 0.734539 19.3207L0.618164 18.9528Z" fill="#171717"/>
<path d="M20.7676 0.474815C22.6989 0.0980139 25.7126 0.434105 27.6414 0.833269C27.8931 0.885365 28.5906 1.01511 28.8099 1.08891L28.7545 1.21084C28.4048 1.1254 27.9241 1.17474 27.5461 1.09184C25.3113 0.601805 23.1779 0.512743 20.8905 0.730969C20.8524 0.618174 20.8438 0.568459 20.7676 0.474815Z" fill="#2F2F30"/>
<path d="M0.61857 18.9526L0.734944 19.3205C0.411376 20.8065 0.488431 21.5105 0.398729 22.9248C0.284959 23.1218 0.425253 25.0406 0.244132 25.575C0.209315 25.3536 0.216659 25.0525 0 24.9706V21.6691C0.067434 21.627 0.124053 21.582 0.139257 21.497C0.290254 20.6523 0.428639 19.7889 0.61857 18.9526Z" fill="#222424"/>
<path d="M45.4187 18.7593C45.6011 19.5222 45.876 21.0281 46.0004 21.8211V22.3781C45.774 22.7368 45.8971 24.5109 45.7942 25.1621C45.7066 25.0209 45.7583 24.9503 45.5966 24.7084C45.5795 24.1313 45.6568 23.5559 45.6482 23.0081C45.628 21.7553 45.6127 20.4563 45.3818 19.2273L45.4187 18.7593Z" fill="#2A2C2C"/>
<path d="M44.7379 28.6767C44.9378 28.5933 44.9827 28.4053 45.0842 28.1958C45.1049 28.3501 45.1247 28.5175 45.1525 28.6694C45.0973 28.8807 44.971 29.422 44.903 29.6025C44.8008 29.6822 44.4454 30.6192 44.3722 30.8113C44.3682 30.724 44.3661 30.7276 44.3241 30.6564L44.1635 30.6554C44.1214 30.5346 44.6601 28.9303 44.7379 28.6767Z" fill="#737375"/>
<path d="M42.6599 34.5494C42.6848 34.5323 42.8566 34.3471 42.8895 34.3125C42.7273 34.742 42.061 35.7084 41.7883 36.1198C41.5771 36.1549 41.5125 36.1703 41.3027 36.1433C41.5455 35.7974 41.7815 35.4467 42.0104 35.0915C42.0514 34.937 42.094 34.8278 42.1991 34.7082C42.4062 34.7682 42.3571 34.3796 42.6599 34.5494Z" fill="#444545"/>
<path d="M42.1984 34.708C42.4056 34.768 42.3564 34.3794 42.6592 34.5491C42.447 34.8201 42.3432 35.0216 42.0098 35.0913C42.0507 34.9368 42.0934 34.8275 42.1984 34.708Z" fill="#A7A7A7"/>
<path d="M44.372 30.8114C44.4453 30.6192 44.8006 29.6822 44.9028 29.6025C44.8071 30.2073 43.5159 33.4919 43.0977 33.9572C43.2026 33.489 43.5189 33.2376 43.3979 32.7143C43.7395 32.2301 44.1187 31.3675 44.372 30.8114Z" fill="#171717"/>
<path d="M42.1992 34.7083C42.5831 34.0725 42.9269 33.24 43.3987 32.7144C43.5197 33.2377 43.2035 33.4891 43.0985 33.9573L42.8896 34.3126C42.8568 34.3472 42.685 34.5324 42.6601 34.5495C42.3573 34.3797 42.4064 34.7683 42.1992 34.7083Z" fill="#7E7B7D"/>
<path d="M45.5966 24.7085C45.7583 24.9504 45.7067 25.021 45.7943 25.1622C45.6231 26.2517 45.4196 27.6145 45.1532 28.6694C45.1254 28.5176 45.1056 28.3502 45.085 28.1959C45.1766 27.8629 45.2615 27.2856 45.3226 26.9312L45.3738 26.6112L45.4632 26.081C45.5126 25.624 45.5571 25.1664 45.5966 24.7085Z" fill="#171717"/>
<path d="M45.0361 26.9602C45.174 27.005 45.1286 26.9698 45.2059 27.092C45.2113 27.0726 45.2032 27.0496 45.1982 27.0259C45.302 26.9818 45.2652 27.016 45.3222 26.9312C45.2611 27.2856 45.1762 27.8629 45.0846 28.1958C44.9831 28.4054 44.9381 28.5933 44.7383 28.6767C44.7828 28.036 44.9251 27.574 45.0361 26.9602Z" fill="#A7A7A7"/>
<path d="M44.8336 17.2358C44.9376 17.6756 45.1667 18.3661 45.2296 18.7613C45.1105 18.8394 45.0755 18.9719 45.0158 19.1096L44.9632 19.1133C44.754 18.7782 44.8165 17.6578 44.8336 17.2358Z" fill="#D3D4D7"/>
<path d="M45.1682 26.1868C45.1785 26.15 45.2064 26.1004 45.2244 26.0645C45.3816 26.111 45.3272 26.116 45.4629 26.081L45.3735 26.6112L45.3223 26.9312C45.2652 27.0161 45.3021 26.9819 45.1983 27.026C45.2032 27.0496 45.2113 27.0726 45.2059 27.0921C45.1287 26.9699 45.174 27.0051 45.0361 26.9602C45.0559 26.7567 45.13 26.3989 45.1682 26.1868Z" fill="#A7A7A7"/>
<path d="M45.168 26.1868C45.1783 26.15 45.2062 26.1004 45.2241 26.0645C45.3813 26.111 45.327 26.116 45.4627 26.081L45.3733 26.6112C45.2803 26.6191 45.3171 26.6257 45.2273 26.5592C45.1945 26.4238 45.1841 26.3244 45.168 26.1868Z" fill="#D3D4D7"/>
<path d="M42.3353 32.9165C41.7543 34.2751 40.4212 36.2025 39.5096 37.3151C36.8827 40.5215 33.0547 42.9225 29.0624 44.0017C28.5424 44.1423 27.7772 44.4883 27.2759 44.5704C23.8508 45.1316 20.1711 45.2951 16.8877 43.9882C16.0597 43.659 15.2113 43.5065 14.4441 43.1709C12.6604 42.3904 10.9894 41.4378 9.46617 40.233C6.91582 38.1954 4.85678 35.6099 3.44172 32.6682C3.12602 32.0028 2.85816 31.2667 2.59654 30.576C2.3985 30.0532 2.04416 29.4709 1.90326 28.9561C1.76827 28.4715 1.74711 27.9349 1.64997 27.4469C0.675702 22.5372 1.44244 17.3471 3.78181 12.9246C5.10219 10.4285 6.79017 8.46371 8.92351 6.62865C11.5216 4.35837 14.6402 2.76493 18.0023 1.98985C19.4244 1.67399 21.0534 1.51507 22.5136 1.29467C23.6769 1.11908 25.265 1.37568 26.4371 1.55274C30.3839 2.14898 33.8109 3.79775 36.9131 6.28652C37.1553 6.4805 37.5897 6.81328 37.7677 7.04126C38.7882 7.86153 39.4582 8.98058 40.3371 9.92614C40.5424 10.147 40.7649 10.3912 40.9445 10.6314C41.1762 10.915 41.3616 11.2395 41.5513 11.5534C41.7903 11.8588 41.8912 12.0048 42.082 12.3415C42.4177 12.9913 42.7927 13.4863 42.7785 14.1994C42.8818 14.4259 43.3004 15.527 43.3395 15.7498C43.7827 16.1679 43.9067 16.6386 44.0981 17.2101C44.2987 17.6558 44.3796 18.1249 44.4285 18.6091L44.5631 19.2793C44.6115 19.5188 44.7527 20.1553 44.6929 20.3795L44.5614 20.2811C44.5325 20.2945 44.4704 20.3207 44.4472 20.3371C44.7148 21.6463 44.6758 23.2581 44.529 24.5868C44.4736 25.0878 44.3513 25.902 44.334 26.3891C44.3118 26.5297 44.3061 26.6143 44.3498 26.7531C44.4966 27.2198 44.5218 28.0678 44.2861 28.4978C44.1698 28.5666 44.1499 28.5436 44.0024 28.5442C43.7814 29.5944 43.4243 30.6112 42.9403 31.5691C43.0229 31.9289 42.8353 33.0315 42.4686 33.1321L42.4504 33.0935C42.4185 33.0264 42.3921 32.9644 42.3353 32.9165ZM14.6442 40.1127C14.7721 40.2741 14.7114 40.2256 14.897 40.2987C15.1583 39.769 15.1934 38.9263 15.5751 38.6818C15.3988 38.6689 15.4446 38.6959 15.3137 38.5998C15.2273 38.8545 14.8603 40.0844 14.6442 40.1127ZM15.6051 37.8329L15.7396 37.836C15.8317 37.636 15.9214 37.4348 16.0085 37.2326C15.9302 37.1472 15.9024 37.1385 15.797 37.0884C15.8352 37.3316 15.694 37.5739 15.6051 37.8329Z" fill="#171717"/>
<path d="M42.0824 12.3418C42.418 12.9916 42.793 13.4866 42.7788 14.1997C42.5324 13.6142 42.11 13.2791 41.7803 12.4856L42.0824 12.3418Z" fill="#8C8C8C"/>
<path d="M44.0029 28.5443C44.1072 27.8231 44.176 27.1008 44.3345 26.3892C44.3124 26.5298 44.3066 26.6144 44.3503 26.7532C44.4971 27.2198 44.5223 28.0678 44.2866 28.4979C44.1704 28.5666 44.1504 28.5437 44.0029 28.5443Z" fill="#A7A7A7"/>
<path d="M43.6973 17.0596C43.8365 17.1975 43.8897 17.2558 44.0979 17.2103C44.2985 17.656 44.3794 18.1251 44.4283 18.6093C44.2813 18.5956 44.2261 18.5513 44.1024 18.477C44.0673 18.0546 43.8429 17.4719 43.6973 17.0596Z" fill="#A7A7A7"/>
<path d="M43.3398 15.75C43.783 16.1681 43.9071 16.6388 44.0985 17.2103C43.8903 17.2558 43.837 17.1975 43.6978 17.0596C43.5909 16.8772 43.3391 15.9953 43.3398 15.75Z" fill="#8C8C8C"/>
<path d="M42.3359 32.9167C42.5579 32.4627 42.6999 32.0356 42.9409 31.5693C43.0236 31.9291 42.8359 33.0317 42.4692 33.1323L42.451 33.0938C42.4191 33.0266 42.3927 32.9647 42.3359 32.9167Z" fill="#A7A7A7"/>
<path d="M44.2793 19.3548C44.318 19.2669 44.3539 19.1971 44.3991 19.1123L44.46 19.1169L44.563 19.2793C44.6114 19.5188 44.7526 20.1553 44.6928 20.3796L44.5613 20.2811C44.5324 20.2945 44.4703 20.3207 44.4471 20.3371C44.4112 20.2314 44.3045 19.5096 44.2793 19.3548Z" fill="#A7A5A6"/>
<path d="M40.9445 10.6313C41.1763 10.915 41.3616 11.2395 41.5513 11.5534L41.461 11.913C41.2715 11.6478 40.9258 11.2119 40.8357 10.9041C40.8027 10.7913 40.8705 10.7406 40.9445 10.6313Z" fill="#737375"/>
<path d="M41.5512 11.5537C41.7903 11.859 41.8912 12.0051 42.082 12.3418L41.7799 12.4856L41.4609 11.9133L41.5512 11.5537Z" fill="#A7A7A7"/>
<path d="M36.9128 6.28662C37.1551 6.48059 37.5895 6.81337 37.7674 7.04135C37.5027 7.05586 37.2741 6.56586 37.0189 6.52376L36.9929 6.58531C37.1033 6.84235 37.4665 6.83022 37.4601 7.09346C37.0907 7.08201 36.7501 6.7092 36.9128 6.28662Z" fill="#444545"/>
<path d="M44.1025 18.4771C44.2263 18.5514 44.2815 18.5956 44.4285 18.6094L44.563 19.2795L44.4601 19.1171L44.3992 19.1126C44.3539 19.1973 44.318 19.2672 44.2794 19.3551C44.2052 19.0421 44.1484 18.7947 44.1025 18.4771Z" fill="#8C8C8C"/>
<path d="M29.8474 31.707C29.754 31.7857 29.6582 31.8616 29.5601 31.9345C27.7545 33.3006 25.6577 34.0241 23.4244 34.1195C22.6279 34.2054 22.006 34.2687 21.2034 34.1478C14.8821 33.195 10.3494 26.4128 12.3569 20.2569C12.4569 19.9166 12.4411 19.5101 12.5746 19.1811C13.8434 16.054 16.5333 13.547 19.7422 12.5072C20.2703 12.3878 20.8501 12.3605 21.3809 12.2673C22.7272 12.0309 24.4198 12.087 25.7545 12.4072C28.8584 13.152 31.8906 15.8065 33.2104 18.7075C33.3483 19.0105 33.4288 19.3722 33.5398 19.6888C34.1991 21.265 34.3254 22.7113 34.0583 24.4148C33.959 25.3946 33.9 25.9314 33.5461 26.8996C33.3904 27.1934 33.2199 27.5367 33.0343 27.8065C32.9713 28.1987 32.6163 29.106 32.2882 29.3282C32.1966 29.2347 32.2374 29.1887 32.1869 29.0768C31.8223 29.7223 31.5795 30.1578 31.0099 30.6558C31.0305 30.8058 31.0648 30.847 30.9714 30.9763C30.7998 31.214 30.4936 31.7041 30.2116 31.8028C29.9792 31.7789 30.0023 31.7413 29.8474 31.707Z" fill="#FEFEFE"/>
<path d="M33.5461 26.8999C33.4913 26.8349 33.4553 26.841 33.3598 26.8078C33.2094 26.4355 33.9139 24.8126 34.0583 24.415C33.959 25.3949 33.8999 25.9316 33.5461 26.8999Z" fill="#A7A7A7"/>
<path d="M32.1865 29.0769C32.2859 28.7809 32.7236 27.9396 33.0339 27.8066C32.9709 28.1988 32.6159 29.1061 32.2878 29.3283C32.1963 29.2348 32.2371 29.1888 32.1865 29.0769Z" fill="#8C8C8C"/>
<path d="M31.0101 30.6558C31.0308 30.8058 31.065 30.847 30.9717 30.9763C30.8001 31.214 30.4939 31.7041 30.2119 31.8028C29.9795 31.7789 30.0025 31.7413 29.8477 31.707C30.2277 31.386 30.6385 30.9952 31.0101 30.6558Z" fill="#2E2C2D"/>
<path d="M31.9572 28.0312C31.8142 28.3319 31.6145 28.6038 31.4477 28.8876C30.4417 30.5993 28.9826 31.7177 27.1882 32.5341C26.6343 32.7861 25.9767 32.8811 25.402 33.0857C25.352 33.1588 25.3096 33.2209 25.2746 33.2719C25.0097 33.3798 23.6032 33.4401 23.2366 33.4812C22.0851 33.6104 21.1 33.332 20.0432 32.9629C18.6511 32.4767 17.5537 32.0704 16.4177 31.0651C15.1159 29.913 14.1303 28.6978 13.5324 27.0424C13.4335 26.778 13.1503 26.3181 13.0674 26.0615C12.8753 25.4418 12.8148 24.7764 12.7542 24.1352C12.2416 18.7135 16.1473 13.7295 21.5604 13.0298C22.0002 12.973 22.5496 12.7743 22.9966 12.7658C25.6262 12.7159 28.108 13.7956 30.0586 15.5289C30.3046 15.7781 30.4543 15.9422 30.6718 16.2159C30.8093 16.4049 31.294 16.9998 31.4645 17.1601C31.8012 17.503 32.3587 18.35 32.4296 18.8227L32.3173 18.9608C32.4417 19.2064 32.5133 19.334 32.5543 19.6142C32.8044 19.8128 32.7364 19.7164 32.8892 20.0331C33.1283 20.5285 33.2265 20.9842 33.3185 21.5257C33.357 21.6242 33.238 22.0889 33.1854 22.1725L33.1584 22.1754C33.1375 22.5245 33.181 22.8006 33.1495 23.1803C33.0954 23.8307 32.9955 24.4662 32.9013 25.1115L32.8302 25.7382C32.8166 26.1843 32.5436 26.8811 32.3021 27.2515C32.3525 27.276 32.4701 27.3183 32.4872 27.3639C32.6045 27.6767 32.2751 27.9406 31.9995 28.0194L31.9572 28.0312Z" fill="#171717"/>
<path d="M31.4637 17.1602C31.8003 17.503 32.3579 18.35 32.4288 18.8227L32.3165 18.9608C32.2171 18.8965 31.8102 18.2452 31.7568 18.1165C31.6008 17.7407 31.3433 17.5519 31.4637 17.1602Z" fill="#8C8C8C"/>
<path d="M32.5537 19.6143C32.8038 19.8128 32.7358 19.7164 32.8886 20.0331C33.1277 20.5286 33.2259 20.9842 33.3179 21.5257C33.3105 21.5829 33.306 21.5797 33.267 21.6237C33.0979 21.4219 33.1343 20.7614 32.8959 20.5735L32.8046 20.6918C32.6913 20.3313 32.5705 19.9929 32.5537 19.6143Z" fill="#737375"/>
<path d="M32.8047 20.6921L32.896 20.5737C33.1344 20.7616 33.0981 21.4222 33.2672 21.624C33.3062 21.5799 33.3106 21.5831 33.318 21.5259C33.3565 21.6245 33.2376 22.0892 33.185 22.1728L33.1579 22.1757C33.0225 21.7458 32.9879 21.2311 32.8047 20.6921Z" fill="#D3D4D7"/>
<path d="M31.957 28.0312C32.0048 27.8327 32.1916 27.4249 32.3019 27.2515C32.3523 27.276 32.4699 27.3183 32.487 27.3639C32.6044 27.6767 32.275 27.9406 31.9993 28.0194L31.957 28.0312Z" fill="#A7A7A7"/>
<path d="M30.0586 15.5293C30.3045 15.7786 30.4543 15.9426 30.6718 16.2163C30.1127 16.1235 30.0697 16.0401 30.0586 15.5293Z" fill="#2E2C2D"/>
<path d="M19.2359 16.213C19.2566 16.2114 19.2774 16.2103 19.2982 16.2096C20.2277 16.1864 21.4946 18.7899 22.78 18.6368C22.9416 18.6873 23.2076 18.6033 23.3418 18.6201C24.2754 18.7372 25.9607 16.1155 26.6154 16.2777C28.081 16.6409 26.6229 17.9479 26.1056 18.4519C25.5476 19.04 23.7641 20.991 23.1998 21.2969C23.0744 21.365 22.9902 21.3623 22.8586 21.3218C22.635 21.2529 22.4282 21.0952 22.2512 20.9453C21.6612 20.4459 18.8688 17.5907 18.6185 17.0569C18.5676 16.9482 18.5642 16.8675 18.6056 16.7545C18.6974 16.5037 19.0094 16.3203 19.2359 16.213Z" fill="#FEFEFE"/>
<path d="M27.6216 17.0176C27.686 17.019 27.7937 17.0224 27.8554 17.0388C29.4385 17.4608 27.3993 19.7128 27.1933 20.7763C26.7347 23.1429 30.051 23.4032 30.6036 24.3628C30.6863 24.507 30.7066 24.6787 30.66 24.8383C30.4421 25.6044 29.9915 25.3894 29.4545 25.1698C28.4931 24.7197 27.5389 24.2542 26.5925 23.7734C26.0637 23.5109 24.4885 22.9643 24.7337 22.2212C25.0324 21.3163 25.6079 20.4006 26.063 19.5506C26.4489 18.83 26.9479 17.4836 27.6216 17.0176Z" fill="#FEFEFE"/>
<path d="M18.0641 17.1167C18.0802 17.1168 18.0962 17.117 18.1122 17.1171L18.1389 17.1186C18.9999 17.1542 20.6129 21.1852 21.1258 21.9709C21.2039 22.0906 21.2656 22.4855 21.2544 22.6523C21.0044 23.1108 19.7904 23.6284 19.2922 23.8725L16.8351 25.0871C16.3197 25.3336 15.2197 25.9011 15.2365 24.5798C15.3113 24.1091 16.1083 23.7995 16.4694 23.6285C17.5636 23.1103 18.7167 22.6172 18.8216 21.2272C18.8424 20.5848 18.4116 19.9576 18.176 19.4005C17.7842 18.4737 16.9578 17.8286 18.0641 17.1167Z" fill="#FEFEFE"/>
<path d="M21.2759 24.5891C21.5333 24.551 21.7341 24.6145 21.976 24.685C22.4425 25.4385 22.8996 29.5569 22.9509 30.6031C22.2414 31.8817 21.3095 30.5944 21.386 29.577C21.421 29.1121 21.1094 27.7454 20.886 27.3615C19.2064 25.3537 17.077 27.3398 16.0991 26.6865C15.9252 26.5703 15.7673 26.3418 15.7297 26.1346C15.7063 26.006 15.7274 25.8849 15.8051 25.7781C15.9217 25.6179 16.177 25.5002 16.3592 25.4384C16.7205 25.316 17.1446 25.2789 17.5197 25.2066C18.7654 24.9638 20.018 24.7578 21.2759 24.5891Z" fill="#FEFEFE"/>
<path d="M24.4079 24.5356C25.3506 24.5542 29.1011 25.1754 29.9255 25.5033C30.1023 25.5736 30.2387 25.7048 30.3763 25.8322C30.3084 26.2787 30.2254 26.477 29.9323 26.811C28.7745 26.8855 27.6575 26.2851 26.5008 26.448C26.1177 26.502 25.78 26.7592 25.4735 26.9845C24.4631 27.8747 24.8273 29.4243 24.3722 30.5781C24.308 30.7406 24.1902 30.874 24.0241 30.938C23.8396 31.009 23.6006 31.0195 23.4186 30.9364C23.3058 30.8849 23.212 30.7884 23.1719 30.67C22.9643 30.0569 23.6366 25.4395 23.9438 24.8137C24.0353 24.6273 24.2247 24.5969 24.4079 24.5356Z" fill="#FEFEFE"/>
<path d="M22.6537 15.319C23.5176 15.1612 24.3449 15.7367 24.4976 16.6015C24.6502 17.4663 24.0698 18.2902 23.2041 18.4377C22.3456 18.5839 21.5302 18.0095 21.3788 17.1519C21.2275 16.2944 21.797 15.4755 22.6537 15.319Z" fill="#FEFEFE"/>
<path d="M19.105 26.7509C19.9705 26.6375 20.7642 27.2467 20.8785 28.112C20.9928 28.9773 20.3846 29.7717 19.5194 29.887C18.6529 30.0026 17.8569 29.3932 17.7423 28.5264C17.6278 27.6597 18.2381 26.8644 19.105 26.7509Z" fill="#FEFEFE"/>
<path d="M16.7183 19.7078C17.5794 19.5675 18.3914 20.1513 18.5325 21.0123C18.6736 21.8733 18.0904 22.6858 17.2296 22.8277C16.3676 22.9697 15.5539 22.3857 15.4126 21.5236C15.2714 20.6616 15.8561 19.8483 16.7183 19.7078Z" fill="#FEFEFE"/>
<path d="M26.5031 26.704C27.3724 26.5764 28.1789 27.1826 28.298 28.0532C28.417 28.9238 27.8028 29.7243 26.931 29.8347C26.0714 29.9436 25.2844 29.3397 25.1671 28.4812C25.0497 27.6227 25.6457 26.8298 26.5031 26.704Z" fill="#FEFEFE"/>
<path d="M28.7094 19.6335C29.563 19.4881 30.3744 20.0577 30.5275 20.91C30.6806 21.7623 30.1181 22.5787 29.2672 22.7393C28.4055 22.9019 27.5766 22.3308 27.4216 21.4678C27.2666 20.6047 27.845 19.7809 28.7094 19.6335Z" fill="#FEFEFE"/>
<path d="M33.6495 20.4751C33.7909 20.6427 33.7751 20.9337 33.7449 21.1363C33.6349 20.9759 33.5988 20.6614 33.6495 20.4751Z" fill="#737375"/>
<path d="M11.2117 7.69016C11.6523 7.65278 11.7527 7.79339 12.1335 7.96153C12.5519 8.16767 12.5365 7.54946 13.0269 7.84855C14.5485 8.77673 16.7297 11.1174 15.708 13.039C15.3124 13.7831 14.972 13.9309 14.2532 14.1821C13.1276 14.5234 12.022 14.4084 11.1372 13.5648C10.1201 12.5951 9.49515 11.2644 9.43832 9.85921C9.42215 9.45958 9.65049 9.02177 9.63836 8.57997L9.63768 8.5611C10.4102 7.90897 10.5037 8.15128 11.2117 7.69016Z" fill="#FEFEFE"/>
<path d="M10.8984 8.72119C12.0892 9.14022 12.6998 9.89127 13.4333 10.8933C14.0072 11.6774 14.2805 12.1588 14.1229 13.1263C13.5698 13.2419 12.2009 12.1489 11.8739 11.7072C11.3341 10.9782 10.995 9.62291 10.8984 8.72119Z" fill="#171717"/>
<path d="M12.4053 8.12651C12.6378 8.09889 12.898 8.24062 13.0611 8.39883C12.8081 8.39816 12.5927 8.28751 12.4053 8.12651Z" fill="#444545"/>
<path d="M20.9589 36.3884C21.6851 36.3573 22.7209 36.9242 22.856 37.6745C22.8911 37.8692 22.8124 38.1611 22.9194 38.3064C23.0851 38.1112 23.1272 37.7041 23.0392 37.4568L23.0868 37.4454C23.1115 37.4623 23.1681 37.5075 23.179 37.5323C23.6317 38.5601 23.4705 39.9073 23.2345 40.9346C23.0461 41.7549 22.6173 42.2789 21.9587 42.681C20.654 43.2946 19.3002 42.4245 18.7624 41.2407C18.1907 39.9822 18.9975 37.8538 19.9954 36.9726C20.2948 36.7082 20.603 36.5496 20.9589 36.3884Z" fill="#FEFEFE"/>
<path d="M21.5409 37.2129C21.608 37.245 21.6121 37.2587 21.6663 37.3107C21.6943 37.6164 21.7923 37.8734 21.8166 38.1677C21.8948 39.1155 21.6837 40.2532 21.3164 41.1264C21.1489 41.5249 20.9276 41.7323 20.5347 41.872C20.4454 41.7149 20.3846 41.5017 20.3353 41.3257C19.841 39.5621 20.533 38.6003 21.5409 37.2129Z" fill="#171717"/>
<path d="M27.9706 36.1933C28.2987 36.1097 28.3289 35.8492 28.7401 36.106C29.0217 36.2819 29.1361 36.3724 29.1013 36.6921C29.3412 36.9426 29.5486 37.2569 29.7356 37.5469C29.7893 38.9889 29.0971 39.744 27.816 40.2367C27.3807 40.7601 29.324 43.307 26.937 43.0559C26.2097 42.7227 25.3716 38.5138 24.8159 37.5968C24.7062 37.5828 24.5245 37.6933 24.4133 37.7487C24.2497 37.6142 23.9039 37.3992 23.7158 37.2758C24.008 37.0637 24.3037 36.8564 24.6028 36.6541C24.538 36.5106 24.4545 36.373 24.4748 36.2216C24.6425 36.011 24.9434 36.2414 25.1116 36.3753C26.0103 35.9688 27.0267 35.9682 27.9706 36.1933Z" fill="#FEFEFE"/>
<path d="M27.9697 36.1933C28.2979 36.1097 28.3281 35.8492 28.7392 36.106C29.0209 36.2819 29.1353 36.3724 29.1005 36.6921C28.8738 36.4858 28.2701 36.2729 27.9697 36.1933Z" fill="#444545"/>
<path d="M24.6028 36.6538C24.538 36.5103 24.4545 36.3728 24.4748 36.2213C24.6425 36.0107 24.9434 36.2411 25.1116 36.375L24.6028 36.6538Z" fill="#2E2C2D"/>
<path d="M27.665 36.9106L27.7347 36.931C27.7878 37.0855 27.8714 37.1659 27.9211 37.2924C28.0275 37.5634 27.9059 37.984 27.7927 38.2394C27.6915 38.4675 27.4614 38.9691 27.2363 39.0598C27.1266 38.9949 27.1406 38.9472 27.0867 38.8003C26.8541 38.1132 26.7073 37.7648 26.292 37.1774C26.8059 37.0012 27.1297 36.9734 27.665 36.9106Z" fill="#171717"/>
<path d="M10.8586 30.207C10.896 30.222 10.9334 30.2374 10.9706 30.253C12.2025 30.7725 13.0745 31.4974 13.5719 32.7586C13.7486 33.2066 14.0554 34.2442 13.876 34.6976C13.7785 34.944 13.5115 35.3567 13.3745 35.6769C12.0622 36.3211 11.6523 36.0746 10.3838 35.5489C10.3003 35.3659 10.1999 35.1918 10.1021 35.016L9.64849 35.3851C9.29999 35.7225 8.91312 36.1211 8.48726 36.3543C7.73365 36.767 7.41758 36.1661 7.13574 35.5906C7.93805 34.3326 9.04137 33.483 10.0574 32.4051C10.4062 32.035 10.7938 31.6784 11.0946 31.2678C10.9313 31.1436 10.6595 30.9646 10.6222 30.7444C10.759 30.7319 10.7032 30.723 10.8364 30.794L10.887 30.7667C10.8743 30.5803 10.8648 30.3938 10.8586 30.207Z" fill="#FEFEFE"/>
<path d="M12.1269 32.4268C12.2306 32.5419 12.3394 32.7038 12.4316 32.8331C12.4628 32.7493 12.4898 32.6806 12.5262 32.599L12.5879 32.5709C12.6597 32.6494 12.6583 32.6567 12.6839 32.7631C12.8212 32.9837 13.1682 33.4062 13.0282 33.6516C12.8543 33.7714 12.8694 33.7251 12.7918 33.8958C12.3965 34.4448 11.4407 34.2371 10.8418 34.1782C11.2947 33.514 11.7162 33.2084 12.1269 32.4268Z" fill="#171717"/>
<path d="M12.4316 32.833C12.4629 32.7492 12.4898 32.6805 12.5262 32.5989L12.5879 32.5708C12.6598 32.6493 12.6583 32.6566 12.6839 32.7631C12.8212 32.9837 13.1682 33.4061 13.0282 33.6515C12.8544 33.7713 12.8694 33.725 12.7918 33.8957C12.712 33.4418 12.6165 33.2487 12.4316 32.833Z" fill="#8C8C8C"/>
<path d="M12.6836 32.7632C12.8209 32.9838 13.1679 33.4062 13.0279 33.6516L12.9349 33.6097C12.7957 33.347 12.6103 33.0411 12.6836 32.7632Z" fill="#444545"/>
<path d="M24.9854 3.07324C25.3613 3.15933 25.6255 3.44193 25.8281 3.75221C26.6291 3.89232 27.6224 3.85625 28.4815 4.0486C29.6268 4.30505 29.2795 4.32823 29.7753 5.04295C29.5636 5.41765 29.5401 5.50839 29.1455 5.69827C28.9108 5.63224 28.6425 5.58507 28.4014 5.53678C28.2996 5.67622 28.2012 5.81902 28.0203 5.80977C27.5217 5.78426 27.0121 5.61418 26.5115 5.54545C26.513 6.01151 26.4527 6.46307 26.4005 6.92559C27.3085 6.90883 27.7949 6.92316 28.5197 7.54411C28.4042 7.79303 28.323 7.97541 28.1755 8.20887C27.9999 8.2334 27.8155 8.24723 27.6382 8.26322C27.2047 8.2718 26.7288 8.30464 26.303 8.24409C26.1274 8.96288 26.1661 10.9567 25.7787 11.4237C25.7002 11.5183 25.5909 11.5832 25.4665 11.5874C25.4068 11.5893 24.317 11.1613 24.2749 11.1148C23.964 10.7713 24.2677 7.28006 24.3756 6.67964C24.4577 6.22355 24.5873 5.77576 24.6626 5.31868C24.6873 5.16892 24.6885 4.70231 24.7479 4.60285C24.8135 4.49284 24.8854 4.51135 24.884 4.36246C24.7946 4.31615 24.7525 4.30244 24.6566 4.27026C24.6546 4.24726 24.6527 4.22425 24.6507 4.20125C24.8655 4.02392 24.9667 3.903 25.0975 3.67382C25.0293 3.44931 24.9743 3.31077 24.9854 3.07324Z" fill="#FEFEFE"/>
<path d="M20.2622 3.46975C20.7462 3.4386 21.307 4.13957 21.0768 4.59531C20.9615 4.8236 20.5009 4.89763 20.2684 4.96259C20.1452 5.12121 20.0206 5.27875 19.8947 5.43521C19.3392 5.54716 18.9544 5.67909 18.4274 5.88376C18.6145 6.24978 18.8478 6.69289 18.9395 7.09242C19.3504 6.87747 20.619 6.38194 21.0138 6.82006C21.1693 6.99261 21.0913 7.34605 21.0583 7.56666C20.572 7.74123 20.0737 8.11588 19.4094 8.35419C19.6203 9.03525 20.4707 11.1053 20.3632 11.6065C20.3152 11.6382 20.2648 11.6663 20.2125 11.6905C19.9686 11.8017 19.0475 11.8847 18.7982 11.7743C18.3674 11.5835 17.1455 8.26906 16.9743 7.67371C16.8515 7.24633 16.772 6.80672 16.6445 6.38082C16.5951 6.21559 16.4445 5.95356 16.4332 5.79463C16.4248 5.67532 16.4994 5.66076 16.4372 5.52492C16.3428 5.49401 16.2926 5.48287 16.1947 5.46508C16.1626 5.39851 16.1472 5.41212 16.1873 5.33917C16.5417 4.69539 16.0589 4.59549 16.0596 4.29465L16.1407 4.24543C16.448 4.22368 16.7787 4.39468 17.0478 4.53066C18.0853 4.08139 19.1611 3.72631 20.2622 3.46975Z" fill="#FEFEFE"/>
<path d="M4.62735 15.0465C4.88287 14.8471 5.15774 14.6738 5.44785 14.5294C6.07819 14.2184 7.01639 14.1263 7.45006 14.8619C7.55913 15.047 7.44243 15.322 7.37338 15.5145C7.0304 15.735 6.67907 15.9693 6.32095 16.1619C7.4904 16.8975 9.07597 17.5536 10.4444 17.769C10.2015 17.4041 8.95593 16.1448 8.97795 15.8702L9.07641 15.7433C9.47451 15.3857 10.613 15.6901 10.9927 16.0043C11.0335 16.0381 11.1596 16.2294 11.1879 16.2876C11.472 17.0404 12.1428 17.7736 11.9265 18.6187C11.6155 19.7241 10.4131 19.7795 9.49688 19.5158C8.08935 19.1587 6.88616 18.6416 5.60108 18.0072C4.03873 17.236 4.07643 16.664 4.62735 15.0465Z" fill="#FEFEFE"/>
<path d="M9.07601 15.7432C9.49481 16.1007 10.6038 15.8238 10.8528 16.1777C10.8436 16.2377 10.8482 16.2478 10.8222 16.299C10.6618 16.2201 9.23153 15.9173 8.97754 15.8701L9.07601 15.7432Z" fill="#737375"/>
<path d="M33.0611 6.61052C34.0791 6.66523 33.8225 5.97644 34.8294 7.09688C35.3384 7.66326 36.4636 8.11329 36.9784 8.77193C37.2597 9.0951 37.303 9.71233 36.7256 9.66965C36.3431 9.62446 34.7898 8.39661 34.4977 8.54526C34.3995 8.97152 33.9583 9.54939 33.6634 9.87517C33.5656 10.0507 33.4668 10.2656 33.3116 10.3857L33.2811 10.4494C33.547 10.617 33.9969 11.0027 34.0762 11.3061C33.9894 11.4864 33.8537 11.3796 33.6852 11.6533C33.5415 11.6781 33.118 11.4 32.6511 11.3611C32.6077 11.6061 31.9476 12.7969 31.7722 13.0012C32.0344 13.2806 33.5962 13.7707 33.2406 14.3546C33.145 14.3563 33.1792 14.3603 33.0877 14.3005C32.6928 14.3585 32.9047 14.7473 32.115 14.4557C31.2146 14.1232 30.479 13.5755 30.0157 12.7192C29.9736 12.6415 29.9775 12.58 30.0137 12.508C30.0368 12.5029 30.0597 12.4974 30.0826 12.4916C30.3539 12.4232 30.3514 12.2093 30.3822 11.9173C30.4775 11.0147 31.2165 10.1142 31.6966 9.30439C31.654 9.02093 32.2807 8.41898 32.3224 8.22195C32.2123 8.30474 32.1246 8.37842 31.9998 8.43812C32.3159 8.01536 32.7188 7.33708 33.2217 7.22689C33.3468 7.05668 33.1582 6.77053 33.0611 6.61052Z" fill="#FEFEFE"/>
<path d="M31.5547 12.8692C31.5556 12.8227 31.5563 12.8093 31.583 12.7535C31.8451 12.2049 32.1131 11.6503 32.4163 11.1232C32.4673 11.1032 32.5094 11.0867 32.5424 11.0737L32.5969 11.3334L32.6512 11.3609C32.6077 11.6059 31.9477 12.7967 31.7723 13.001L31.7426 12.9138L31.5547 12.8692Z" fill="#D3D4D7"/>
<path d="M31.5547 12.8692C31.5556 12.8227 31.5563 12.8093 31.583 12.7535C31.8451 12.2049 32.1131 11.6503 32.4163 11.1232C32.4673 11.1032 32.5094 11.0867 32.5424 11.0737C32.5288 11.5644 31.9987 12.1503 31.805 12.6176C31.7553 12.7375 31.6774 12.8206 31.5547 12.8692Z" fill="#2E2C2D"/>
<path d="M31.6974 9.30407C31.6548 9.02061 32.2815 8.41865 32.3232 8.22163C32.2131 8.30442 32.1254 8.37809 32.0006 8.43779C32.3167 8.01503 32.7196 7.33676 33.2225 7.22656C33.1614 7.32274 31.6856 9.31251 31.6974 9.30407Z" fill="#2E2C2D"/>
<path d="M33.5357 9.56348C33.5808 9.6663 33.6234 9.77025 33.6635 9.87514C33.5656 10.0507 33.4669 10.2656 33.3116 10.3856L33.2812 10.4494L32.9922 10.2562C33.2482 10.0152 33.3086 9.81863 33.5357 9.56348Z" fill="#737375"/>
<path d="M33.536 9.56348C33.5812 9.6663 33.6238 9.77025 33.6638 9.87514C33.566 10.0507 33.4672 10.2656 33.312 10.3856C33.1496 10.0582 33.599 10.0304 33.536 9.56348Z" fill="#A7A7A7"/>
<path d="M35.3531 17.8344C35.6614 18.3409 36.4117 18.9323 36.1328 19.6011L36.0577 19.6156C35.8617 19.4794 35.8552 19.4595 35.6487 19.5223C35.38 19.5987 35.0804 19.2191 34.8965 19.0825C34.4363 18.7405 33.6317 17.1454 33.9574 16.6328L34.1619 16.5954C34.3903 16.4017 34.507 16.1533 34.6942 15.9294C34.8931 15.6914 35.2213 15.4295 35.4813 15.2549C36.2831 14.7069 37.0904 14.2432 37.9421 13.7715C38.3139 13.5656 38.9933 13.3297 39.2505 13.0025C39.3223 12.9111 39.2527 12.7297 39.2158 12.6208L39.2456 12.5728C39.5797 12.6358 39.8253 12.6856 40.1509 12.7799C40.4381 13.0637 40.5763 13.7244 40.7595 14.0732C41.1128 14.7456 41.5407 15.3726 41.8397 16.0781C41.9679 16.3806 41.8772 16.6927 41.7527 16.9775C41.581 16.9481 41.4089 16.9207 41.2366 16.8952C40.8322 16.4665 40.6364 16.0267 40.3002 15.55C40.1314 15.3109 39.9354 15.1685 39.822 14.9003C39.808 14.8672 39.781 14.8676 39.731 14.8444C39.3542 15.2982 39.0573 15.4211 38.5339 15.65C38.3322 15.7605 37.975 16.0069 37.7938 16.0693C37.9364 16.4012 38.1728 16.8898 38.1397 17.246L38.0919 17.3218L37.9417 17.3249C37.7885 17.3284 37.6328 17.4069 37.5647 17.3378C37.3721 17.1421 37.1885 16.8516 36.9422 16.7186C36.5353 16.8309 35.6183 17.5297 35.3531 17.8344Z" fill="#FEFEFE"/>
<path d="M35.2588 17.6684C35.654 17.184 36.4401 16.8363 36.8278 16.4795C36.8607 16.6622 36.8253 16.6359 36.9424 16.7184C36.5355 16.8307 35.6185 17.5295 35.3533 17.8342C35.3483 17.7703 35.2996 17.7223 35.2588 17.6684Z" fill="#D3D4D7"/>
<path d="M35.2587 17.6685L35.2295 17.5401C35.363 17.3119 36.5915 16.3106 36.8014 16.3665L36.8277 16.4796C36.44 16.8364 35.6539 17.1841 35.2587 17.6685Z" fill="#2E2C2D"/>
<path d="M38.3839 15.4434L38.48 15.4395L38.4832 15.4731C38.4909 15.5486 38.4846 15.5978 38.5341 15.65C38.3325 15.7605 37.9753 16.0068 37.7941 16.0693C37.7563 16.0076 37.7083 15.994 37.6387 15.9539C37.8076 15.9441 38.3283 15.5918 38.3839 15.4434Z" fill="#D3D4D7"/>
<path d="M38.3831 15.4434C38.3275 15.5918 37.8068 15.9441 37.6379 15.9538C37.6105 15.86 37.6121 15.8989 37.6495 15.7978C37.8516 15.6468 38.1457 15.5418 38.3831 15.4434Z" fill="#2E2C2D"/>
<path d="M32.5334 33.6553C32.5337 33.4568 32.5373 33.3523 32.4993 33.159C32.4359 33.1049 32.2958 33.0015 32.3518 32.9042C32.689 32.3185 33.2441 31.8986 33.5961 31.3064C33.7944 30.9729 34.6641 29.8854 35.0966 30.0574L35.0228 30.208C35.0334 30.3583 35.0553 30.3365 35.1754 30.477C35.1502 30.7162 34.2998 32.117 34.1137 32.4175C34.6881 32.6489 34.8215 32.7433 35.3047 33.1393L35.8672 33.4638C36.0243 33.2811 36.327 32.8699 36.5688 32.9004C37.0958 32.967 36.6952 33.7302 36.6176 33.9152C36.9603 34.2548 37.645 34.6168 38.0966 34.7868C38.2961 34.5247 38.6771 33.4538 39.1108 33.5131C39.1191 33.522 39.2912 33.9201 39.3119 33.9962C39.5655 34.9273 38.2903 36.101 37.7339 36.3813C37.6547 36.3322 37.4954 36.1744 37.4446 36.1612C36.9232 36.0262 36.5098 35.9004 36.0356 35.6293C34.9626 35.0155 33.992 34.2948 33.0394 33.5126C32.8734 33.4892 32.6926 33.5876 32.5334 33.6553Z" fill="#FEFEFE"/>
<path d="M36.6172 33.915C36.96 34.2546 37.6446 34.6166 38.0962 34.7866C37.9914 34.9042 37.7822 35.1936 37.6722 35.2413C37.542 35.1542 37.5622 35.0974 37.5009 34.9093L37.5907 34.843C37.543 34.7138 36.7833 34.3257 36.5527 34.0971C36.581 34.0387 36.5973 33.9773 36.6172 33.915Z" fill="#D3D4D7"/>
<path d="M35.3043 33.1392L35.8668 33.4637C35.8454 33.5086 35.7124 33.7107 35.6788 33.7638C35.4907 33.6422 35.2297 33.5167 35.166 33.3196C35.2122 33.2258 35.2294 33.2148 35.3043 33.1392Z" fill="#8C8C8C"/>
<path d="M36.5533 34.0972C36.7838 34.3258 37.5436 34.7139 37.5912 34.8431L37.5014 34.9094C37.2949 34.7065 36.6278 34.4433 36.4385 34.2L36.4564 34.1306L36.5533 34.0972Z" fill="#2E2C2D"/>
<path d="M38.8583 22.1636C39.4935 22.5964 39.6081 22.7575 39.8566 23.5018C40.0854 23.5117 40.2635 23.5531 40.4812 23.5842C42.5406 23.879 41.2028 24.5492 40.4969 25.4186C40.4373 25.4918 40.9821 26.7875 40.5937 27.1271C40.1542 27.3129 39.26 26.7105 38.9535 26.3847C37.5586 27.4048 36.9551 27.7049 37.2725 25.625C37.2875 25.5269 37.418 25.4998 37.5033 25.4718C37.4228 25.387 37.3502 25.4522 37.2401 25.3542C36.8931 25.0457 36.5591 24.7236 36.2586 24.3705C36.0249 23.9994 36.3226 23.4797 36.7622 23.6255C36.9882 23.5685 37.078 23.5042 37.2734 23.5733C37.3404 23.6629 37.3751 23.7733 37.422 23.8086L37.624 23.6415C37.7888 23.6575 37.9316 23.7426 38.0461 23.6225C38.4196 23.2306 38.5345 22.6423 38.8583 22.1636Z" fill="#FEFEFE"/>
<path d="M36.2586 24.3703C36.0249 23.9991 36.3226 23.4794 36.7622 23.6253L36.7499 23.6583C36.5604 23.8058 36.4458 24.2105 36.2586 24.3703Z" fill="#A7A7A7"/>
<path d="M36.7623 23.6252C36.9883 23.5682 37.0781 23.5039 37.2734 23.573C37.3405 23.6626 37.3752 23.773 37.4221 23.8083C37.0655 23.8501 37.055 23.8444 36.75 23.6582L36.7623 23.6252Z" fill="#444545"/>
<path d="M6.9252 22.1733C7.66726 22.6204 7.55419 22.697 7.91258 23.4768C10.9932 23.9161 9.31626 24.3614 8.54953 25.4556C8.52545 25.49 8.71718 25.9351 8.72064 26.0072C8.77486 26.2894 9.01007 26.9294 8.63668 27.0825C8.40654 27.1769 8.01339 27.0454 7.79502 26.962C7.44369 26.8133 7.30133 26.676 7.09078 26.3761C6.67939 26.6423 5.823 27.3792 5.37656 27.0441C5.23825 26.7933 5.31475 25.9468 5.33717 25.6137C5.40841 25.5383 5.41744 25.5367 5.51182 25.4897C5.24081 25.1091 4.75359 25.0302 4.36883 24.3457C4.14427 24.107 4.3261 23.7625 4.56357 23.6265C4.69222 23.5528 4.77807 23.6032 4.90902 23.6334C5.03956 23.7542 5.10007 23.8342 5.27571 23.8441C5.42773 23.7819 5.55113 23.6911 5.66501 23.6116C5.66716 23.61 6.04522 23.7302 6.11175 23.6553C6.4117 23.3176 6.6788 22.544 6.9252 22.1733Z" fill="#FEFEFE"/>
<path d="M4.36883 24.3458C4.14427 24.107 4.3261 23.7626 4.56357 23.6266C4.69222 23.5528 4.77807 23.6032 4.90902 23.6335C4.78126 23.8053 4.46579 24.1814 4.36883 24.3458Z" fill="#A7A7A7"/>
<path d="M15.1713 35.0939C15.1024 34.9804 15.008 34.8489 14.932 34.7373C14.9848 34.5893 15.1524 34.6067 15.2753 34.5148C15.3687 34.4449 15.4371 34.3747 15.5357 34.3062C15.8225 34.2427 16.4545 34.7527 16.7665 34.8942C17.2174 35.0987 18.7539 35.6726 18.9085 36.1963C18.8776 36.3236 18.614 36.5858 18.5285 36.5636C17.8004 36.3739 17.1029 36.1259 16.3666 35.9583C16.3452 36.5802 16.2555 36.6617 16.0085 37.2329C15.9302 37.1475 15.9025 37.1388 15.797 37.0887C15.8353 37.3319 15.694 37.5742 15.6051 37.8332L15.7396 37.8363C16.0828 37.9387 16.365 38.2223 16.6313 38.4603C16.4532 38.5767 16.3967 38.6151 16.2479 38.7647C16.0594 38.8523 15.8661 38.6754 15.5751 38.6822C15.3988 38.6692 15.4446 38.6963 15.3137 38.6001C15.2273 38.8548 14.8603 40.0847 14.6442 40.1131C14.7721 40.2744 14.7114 40.2259 14.8971 40.299C15.2842 40.4881 16.489 40.5256 16.364 41.1633C16.3431 41.1861 16.2943 41.2349 16.2657 41.2475C15.2412 41.6995 14.0351 41.1627 13.3795 40.3344C13.2458 40.1655 13.4658 40.1083 13.5075 39.9978C13.5909 39.7764 13.4292 39.4722 13.4988 39.2402C13.8046 38.1166 14.5362 36.0299 15.1713 35.0939Z" fill="#FEFEFE"/>
<path d="M14.6441 40.1127L14.6279 40.0341C14.7825 39.714 15.0244 38.6851 15.1856 38.5649L15.3137 38.5998C15.2273 38.8545 14.8603 40.0844 14.6441 40.1127Z" fill="#2E2C2D"/>
<path d="M15.7969 37.0884C15.8351 37.3316 15.6939 37.5738 15.605 37.8329C15.526 37.7999 15.5263 37.8046 15.4756 37.7298C15.5289 37.5066 15.6665 37.2756 15.7969 37.0884Z" fill="#444545"/>
<path d="M30.2002 34.1412C30.2917 34.1353 30.6341 34.1534 30.6856 34.1897C31.5065 34.7687 33.2796 37.1557 33.6177 37.9173C33.8763 37.6698 34.1289 37.416 34.3751 37.1561C34.5906 37.1924 34.8178 37.2606 35.0299 37.3187C35.0981 38.2005 35.0563 38.7104 34.5625 39.4463C33.8603 40.2063 33.5341 40.1756 32.5746 39.9959C32.5185 39.8098 32.4819 39.7088 32.3664 39.5491C31.3961 38.2075 30.6708 36.73 29.8493 35.2983C29.4761 34.6479 29.5628 34.4805 30.2002 34.1412Z" fill="#FEFEFE"/>
<path d="M15.314 38.5996C15.4449 38.6958 15.3991 38.6687 15.5754 38.6817C15.1937 38.9261 15.1586 39.7689 14.8974 40.2985C14.7117 40.2255 14.7725 40.2739 14.6445 40.1126C14.8607 40.0842 15.2277 38.8544 15.314 38.5996Z" fill="#D3D4D7" fill-opacity="0.988235"/>
<path d="M15.7973 37.0884C15.9028 37.1385 15.9305 37.1471 16.0088 37.2325C15.9217 37.4348 15.8321 37.6359 15.7399 37.8359L15.6055 37.8329C15.6943 37.5738 15.8356 37.3316 15.7973 37.0884Z" fill="#D3D4D7" fill-opacity="0.988235"/>
<path d="M41.3025 36.1432C41.5123 36.1702 41.5769 36.1548 41.7881 36.1196C41.702 36.246 41.3809 36.7351 41.2801 36.799C41.1474 36.839 41.0812 36.9123 40.9757 37.0034C40.9593 36.9047 40.9542 36.87 40.9163 36.7769L40.9082 36.7576C40.9525 36.6537 41.2266 36.2564 41.3025 36.1432Z" fill="#171717" fill-opacity="0.988235"/>
</g>
<defs>
<clipPath id="clip0_3163_800">
<rect width="46" height="46" fill="white"/>
</clipPath>
</defs>
</svg>
