<svg width="96" height="139" viewBox="0 0 96 139" fill="none" xmlns="http://www.w3.org/2000/svg">
<path d="M86.9247 0L87 0.102904C86.2603 1.06057 85.0514 2.32676 84.2244 3.24907L79.3822 8.66901C73.8858 14.8303 68.3551 20.9605 62.7899 27.0593L54.8683 35.7179C53.7913 36.8854 52.246 38.6832 51.0621 39.6573C50.5966 40.0404 48.4361 41.0875 47.755 41.4308L42.569 44.0558L23.941 53.5547C24.741 54.1617 26.6331 55.2171 27.6047 55.7946C30.5003 57.5021 33.407 59.1907 36.3247 60.8599C43.0875 64.8056 49.8207 68.8024 56.5241 72.8496C60.2801 75.111 65.2598 77.9957 68.7983 80.4558C67.345 82.6408 65.6668 84.8855 64.1419 87.0462L55.5354 99.278L51.5797 104.926C51.1764 105.506 49.7584 107.621 49.3133 108.051C48.293 109.035 46.3008 110.386 45.1086 111.248L37.3916 116.848L6.81189 138.986L6.72416 139L6.71301 138.874C13.4934 127.955 20.1243 116.542 26.7659 105.494L30.9706 98.5214C31.2302 98.0922 32.6877 95.6134 32.9286 95.4268C33.7285 94.8092 35.6576 93.7522 36.612 93.2045L44.7778 88.5277C40.9924 86.4136 36.8463 83.7725 33.0632 81.5325C22.0967 74.9571 11.076 68.4731 0.00213818 62.0821L0 43.388C0.877097 42.8597 2.25635 42.2101 3.20045 41.7331L8.83611 38.8905L24.2982 31.0664C37.78 24.2404 51.3028 17.4956 64.8649 10.8322L78.0497 4.38717C80.9647 2.97301 84.0711 1.51473 86.9247 0Z" fill="#A879E7"/>
<path d="M73.045 34C73.0012 34.3971 59.6447 51.1276 58.4614 52.5886C63.327 55.5742 68.5736 58.5326 73.5167 61.4501L96 74.7534C82.9704 84.4205 69.9968 93.7987 57.0363 103.612C56.4162 104.067 55.8017 104.53 55.1928 105C60.7775 97.7244 65.926 89.9457 71.3687 82.5477C73.6595 79.4342 75.9961 76.2297 78.2038 73.0637C75.0127 71.0917 71.5583 69.1233 68.3186 67.211L52.5238 57.8752C49.4111 56.0456 46.0305 54.144 43 52.2444C45.5981 50.8384 48.7509 48.7295 51.3901 47.1674C58.637 42.8783 65.799 38.2728 73.045 34Z" fill="#EAEAEA"/>
</svg>
