<svg width="834" height="826" viewBox="0 0 834 826" fill="none" xmlns="http://www.w3.org/2000/svg">
<path d="M228.171 19.29C225.125 10.891 222.717 7.12846 214.252 3.17367L212.613 2.41853C216.172 0.22298 231.574 -0.108447 236.554 0.0258028C249.904 0.385201 260.543 5.11261 272.362 10.7385C274.408 6.71941 276.564 1.77313 281.497 0.845968C298.634 -2.37463 316.653 15.7358 329.276 24.4278L329.797 15.1639C333.302 10.3568 333.951 8.86882 339.634 8.01157C353.815 5.87196 364.401 13.4067 376.873 17.472C390.382 21.8764 407.366 25.613 420.449 30.876C445.054 40.77 468.604 51.6841 491.329 65.2084C505.725 48.6956 528.513 42.4376 549.014 36.5222C589.065 24.6278 630.326 17.2357 672.014 14.4821C716.645 11.3853 785.972 8.33252 824.667 35.5503C837.162 44.3409 836.463 62.9506 825.052 72.8313C789.538 103.574 739.999 117.702 696.857 134.655C688.347 137.975 669.112 143.098 663.231 146.799C697.556 146.961 784.609 154.652 812.333 179.226C815.249 181.81 816.64 185.867 817.794 189.515C814.878 201.456 810.969 204.692 800.572 211.08C788.65 218.4 774.82 223.255 761.64 228.052C713.226 245.678 662.441 256.903 612.594 269.526C597.778 273.278 570.27 278.631 556.817 283.454C575.088 282.137 593.296 280.078 611.559 278.678C662.113 274.802 722.546 272.927 772.422 281.776C784.581 283.934 800.698 286.702 810.333 295.079C813.312 297.666 815.486 301.013 815.528 305.059C815.584 310.85 812.074 315.943 808.124 319.852C788.21 339.546 715.288 363.863 687.634 370.824C710.625 372.215 755.815 374.894 772.058 392.733C775.093 396.065 777.358 400.168 777.169 404.787C776.904 411.271 772.338 416.459 767.653 420.491C738.887 445.262 641.8 467.65 603.574 477.053C592.932 479.671 582.129 481.807 571.641 484.997C608.755 485.098 643.192 482.038 679.551 493.267C702.059 500.219 717.603 516.796 695.5 536.514C669.482 559.735 630.585 573.272 597.959 584.914C620.838 582.551 641.584 581.537 664.749 583.159C675.852 583.942 712.659 590.221 695.927 609.009C680.915 625.86 649.527 635.684 628.837 644.054C619.46 647.655 607.651 650.151 599.638 654.724C621.579 653.158 673.328 648.207 680.027 675.854C678.286 682.805 676.356 688.524 670.168 692.831C643.318 711.549 609.748 726.254 579.584 739.183C560.299 747.447 516.997 769.913 497.698 770.668C508.208 758.817 537.442 747.196 552.342 740.504C576.354 729.862 600.267 718.989 624.075 707.893C630.802 704.746 688.844 680.728 665.707 668.575C634.424 652.144 588.793 666.667 555.503 667.331C555.104 666.932 554.699 666.534 554.3 666.142C553.818 663.66 553.636 663.576 554.349 661.073C562.488 652.983 629.487 636.782 644.087 628.916C655.253 622.902 685.327 614.757 690.459 600.234C692.137 595.479 677.321 592.766 674.251 592.354C639.745 587.767 602.281 591.528 568.222 597.542C561.174 598.793 554.174 600.332 547.252 602.15C541.309 603.758 527.213 609.352 522.129 605.995C521.5 604.289 521.15 603.583 521.759 601.751C522.423 599.772 525.115 598.975 526.877 598.353C534.086 595.815 541.805 594.535 549.14 592.305C580.801 582.683 682.257 550.778 696.109 522.844C697.556 519.928 698.088 516.733 696.857 513.643C694.501 507.678 687.061 504.469 681.453 502.308C634.948 484.378 547.091 494.808 497.524 501.589C492.175 502.322 482.386 505.007 479.498 499.118C479.666 496.277 479.232 497.528 480.791 495.206C486.651 491.577 535.289 483.165 545.917 480.897C578.36 473.978 610.692 465.533 642.758 457.018C662.497 451.777 765.01 427.844 768.31 405.555C768.695 402.933 767.982 400.787 766.324 398.79C754.466 384.497 712.96 380.634 694.521 379.501C683.243 378.808 670.811 377.95 659.624 379.581C642.758 382.039 621.187 389.132 604.161 393.443C594.505 395.888 584.842 398.462 575.109 400.614C566.355 402.551 557.349 404.007 548.685 406.311C546.923 406.78 544.994 407.284 543.581 408.482C543.707 409.686 553.461 433.374 554.72 435.864C553.293 438.706 553.496 439.295 553.475 442.603C547.546 431.468 539.113 421.225 534.191 410.19C519.311 412.949 448.788 428.381 440.118 422.497C439.034 421.762 438.649 420.818 438.139 419.676C438.02 417.471 438.566 416.109 440.055 414.523C448.641 405.338 506.355 391.572 520.724 388.547C503.67 357.717 457.326 295.693 423.043 285.966C411.702 282.749 399.913 283.376 389.508 289.218C376.873 296.316 367.9 306.962 364.148 320.987C358.973 340.332 356.46 367.063 367.063 385.104C374.146 397.155 385.327 402.033 395.403 410.937C418.239 431.122 410.848 480.972 404.269 507.063C398.682 529.983 391.305 552.428 382.188 574.188C368.133 607.296 348 644.173 335.951 676.917C320.523 718.835 310.756 780.653 305.208 825.11L303.435 823.928C304.654 817.977 304.339 811.852 305.147 805.874C312.718 749.86 318.558 681.861 342.25 630.125C373.781 561.28 431.622 462.474 351.069 403.451C349.434 402.562 346.23 409.086 345.066 410.267C333.297 422.215 310.954 444.997 295.858 452.116L295.126 452.453C296.286 485.086 278.086 513.405 262.613 540.877C253.763 556.596 243.646 558.218 251.744 579.684C253.815 581.446 256.169 583.201 258.331 584.886C259.129 587.676 259.464 589.759 259.982 592.598C264.192 615.714 248.083 636.754 235.349 654.521C228.206 664.492 213.682 679.847 202.002 683.727C197.692 685.154 191.085 686.154 185.406 688.335C179.365 690.664 166.43 695.209 160.286 695.747C142.002 697.348 116.548 687.426 102.387 676.309C87.5899 664.695 78.1266 645.718 74.4704 627.657C70.5835 608.45 74.046 584.368 74.3096 564.539C74.7683 530.011 75.3438 494.776 74.5935 460.277C74.0775 436.525 68.9319 410.99 65.3456 387.629C63.1732 373.476 63.1809 354.909 62.4789 340.51C62.0062 330.814 62.7271 321.994 63.4655 312.507C63.9962 305.688 67.0245 286.678 66.3329 280.775L65.868 282.158C59.7162 286.722 54.1428 292.017 49.2699 297.927C30.9986 320.214 33.0697 346.267 35.6596 372.688C25.0112 360.035 22.6688 348.2 20.1614 332.644C10.9205 357.045 13.1706 391.986 29.0317 413.088C31.4154 416.259 40.2479 426.307 40.9492 428.447L40.4758 427.446L39.8808 427.943C30.5777 419.296 28.3283 414.465 22.1039 404.361C1.67549 371.202 -4.84822 338.942 3.59904 300.218C5.6079 292.678 6.58469 279.215 12.3344 273.529C20.9473 265.01 55.4489 225.403 48.463 213.913C47.2918 213.792 46.3842 213.821 45.3655 214.513C29.082 225.571 16.9024 245.589 10.7136 263.38C13.8307 236.236 25.2426 210.714 43.3937 190.294C47.7771 185.347 54.6511 179.204 59.5638 174.531L68.3355 166.799C74.3642 161.819 80.1845 156.593 85.7824 151.133C62.9921 151.426 43.9656 148.585 26.59 131.834L25.9307 131.187C44.1656 131.486 60.7371 130.798 74.3334 116.641C59.0778 103.907 48.342 93.4568 41.1806 74.3381C56.8557 77.8782 105.395 82.8909 122.378 77.0364C123.47 76.6602 125.288 74.2493 126.106 73.1557C135.289 71.674 145.314 69.8666 154.491 68.9604C157.719 54.6809 164.376 46.9622 179.311 46.714C157.487 21.568 135.67 55.9892 130.869 53.172C138.516 42.8711 146.013 33.3618 159.317 31.1201C168.459 29.5804 177.536 34.9916 181.287 34.0358C181.165 31.4543 178.505 28.1127 176.497 26.6059C167.678 19.9885 164.031 16.4658 152.979 16.4134C140.937 16.356 128.878 26.6702 122.143 28.2204C150.77 2.87162 195.781 -1.29363 228.171 19.29ZM88.0493 161.912C80.0404 164.71 77.6414 166.267 70.4702 170.794C68.2802 172.529 65.8644 174.358 63.7983 176.211C57.5249 181.717 46.9009 192.519 43.4936 200.031C49.6887 194.186 57.2403 189.267 64.5255 184.929C57.1578 196.939 57.2871 212.552 56.6816 226.42C67.8607 212.968 75.7025 195.869 93.6493 187.598C91.2461 205.211 80.59 229.908 69.3571 243.519C59.3673 255.623 40.7562 268.131 40.7066 286.559C43.0441 284.448 48.7895 272.297 52.8128 267.437C58.6394 259.813 66.9741 253.139 73.5286 246.382C89.0638 230.368 94.2765 211.393 101.367 191.245C102.872 186.97 110.254 178.169 114.818 176.556L115.473 177.116C116.931 185.407 114.28 197.669 112.926 206.247C115.553 200.946 118.902 195.805 121.768 190.563C129.818 175.838 131.832 163.087 131.99 146.666C108.829 157.922 86.7446 178.227 69.999 197.654C72.8455 182.191 76.7506 173.115 88.0493 161.912ZM262.313 52.6469C262.077 54.8501 261.792 58.1148 261.039 60.1607C256.802 71.6768 238.125 66.0265 230.334 63.031C237.601 74.5793 238.348 78.3131 237.79 91.8878C212.796 76.2273 179.56 72.7292 150.691 74.9177C125.772 94.435 88.1549 84.8739 58.7912 85.5437C87.0753 102.196 134.345 119.266 167.128 118.861L171.133 120.149C166.97 121.207 163.908 121.621 161.153 124.877C159.778 131.875 160.434 148.988 159.37 158.452C154.483 201.918 139.92 235.323 103.447 260.943C97.9957 264.772 86.1362 268.79 82.4038 272.365L80.8907 272.585C79.2629 274.185 77.5309 277.406 77.2869 279.631C73.5265 313.93 72.4819 349.971 76.8562 384.281C79.337 403.736 84.1462 423.413 85.8803 443.085C87.6423 463.691 86.2991 484.301 87.0354 504.944C88.1842 521.124 81.5857 537.835 80.1984 553.428C78.1945 575.95 75.1599 599.479 75.8052 622.021C76.2185 636.439 84.6763 652.878 95.0562 662.688C89.984 652.955 88.0185 648.718 89.7931 637.18L90.484 636.509C91.8328 635.216 95.3834 631.901 97.2391 630.874C104.382 626.909 106.109 617.225 95.4449 618.344C91.7859 618.728 90.1176 623.909 88.8806 627.419C83.6617 597.668 103.28 613.917 114.17 625.189C125.352 636.761 128.764 648.27 121.084 663.143C120.311 657.961 119.813 654.892 118.428 649.864C116.657 647.976 115.854 646.662 113.355 646.165C105.413 647.62 106.33 661.373 107.259 667.443C105.163 662.31 103.639 656.073 98.7382 653.654L97.4468 654.137C94.6471 661.346 105.458 672.966 111.64 675.365C123.258 679.868 136.515 662.415 139.41 652.71C141.158 646.928 140.46 640.677 137.476 635.418C130.568 623.147 106 607.429 93.8591 598.003C104.859 600.667 110.637 601.422 120.05 608.177C117.566 588.781 119.16 561.567 122.194 542.338C127.232 583.131 126.182 608.191 154.439 639.858C156.347 641.998 151.157 654.766 148.813 656.003C143.812 663.884 127.214 670.946 127.956 679.029C131.121 682.818 147.676 687.21 152.529 687.063C183.392 686.133 180.022 656.857 177.649 637.404C176.239 625.846 188.05 589.046 194.384 580.278L195.88 579.593L196.974 580.236C201.068 597.507 176.436 657.178 192.315 674.547C193.055 675.358 195.576 675.533 196.561 674.903C207.983 667.555 209.443 648.676 216.058 637.95C216.733 636.859 217.354 635.964 217.978 635.048C219.186 640.467 219.395 645.368 223.693 648.529C235.626 651.773 269.878 600.52 234.875 588.151C225.58 591.864 222.29 596.227 218.162 605.618C218.931 599.143 219.918 590.445 217.85 584.194C217.006 581.642 211.501 573.279 212.839 571.685C220.106 563.035 230.662 554.722 237.644 545.534C246.205 534.262 249.155 525.501 253.98 512.566C255.732 507.867 259.999 500.62 257.425 495.938C246.289 490.55 224.926 518.936 219.442 526.963C216.84 530.766 217.208 531.696 213.047 534.626L211.689 534.011C212.792 529.801 213.679 528.62 215.467 524.837C220.416 513.964 221.82 501.849 217.539 490.642C208.565 467.152 173.798 477.046 165.279 455.477C165.922 454.994 173.84 456.02 176.998 455.835L178.036 455.768C203.637 438.92 203.86 356.947 204.619 327.227C204.521 322.966 204.717 318.071 204.792 313.758L206.45 317.642C206.553 322.285 206.747 326.924 207.032 331.558C209.135 361.941 209.721 392.671 211.321 423.103C211.873 433.611 208.295 439.54 212.164 450.095C226.611 457.532 240.334 453.361 255.342 449.571C260.779 448.198 270.882 442.791 276.049 439.923C297.165 428.201 314.962 417.458 329.779 397.912C334.396 391.822 338.013 388.216 341.952 381.02C350.431 365.533 350.193 353.821 351.73 337.51C354.164 311.686 347.034 288.742 332.431 267.455C329.565 263.277 324.554 255.718 320.865 252.279C299.407 232.271 267.516 214.394 258.286 184.975C257.162 181.393 255.43 173.764 257.267 170.42C259.536 170.091 259.272 172.208 260.133 174.805C269.913 204.307 295.245 219.518 320.485 233.401C383.02 218.536 431.594 247.316 473.422 290.441C524.381 278.789 779.407 225.082 805.159 195.102C806.585 193.442 807.942 191.491 807.515 189.176C806.781 185.244 800.327 181.641 797.006 179.831C765.31 162.572 691.41 156.628 654.512 156.475C647.003 156.443 639.234 156.068 631.774 156.982C620.446 158.369 609.161 163.611 598.183 166.816C570.166 174.995 450.991 207.685 431.713 196.282C430.21 195.397 428.776 194.007 428.476 192.235C428.077 189.886 429.014 187.953 430.399 186.121C436.957 177.467 451.557 174.246 461.493 171.232C500.509 159.397 539.19 154.255 579.514 149.408C574.599 143.35 557.062 127.558 550.07 124.623C526.709 114.815 498.048 109.019 473.044 104.588C418.498 94.9231 354.654 83.8761 301.06 102.267C282.246 108.723 268.909 119.432 260.761 138.032C257.975 144.391 257.137 150.124 253.693 157.34L253.183 158.393C256.133 136.112 251.091 112.392 240.153 92.8415C265.38 100.116 286.87 93.4079 310.853 84.3663C314.398 83.5419 322.211 77.8894 324.977 77.5705C380.216 71.2056 447.229 86.8149 498.656 103.262C508.403 106.302 518.039 109.681 527.548 113.393C530.66 114.635 541.274 119.884 543.204 120.283C542.938 119.013 539.47 116.087 538.295 115.199C525.409 105.454 508.886 95.9425 494.328 89.1916C483.875 84.3488 472.135 78.0013 461.752 73.7144C439.824 64.6616 416.386 57.454 393.375 51.7127C388.397 50.4695 377.111 47.616 372.721 46.9392C367.917 46.1987 367.565 53.472 356.852 52.0987C347.041 50.8408 335.389 44.2863 326.808 45.0331L326.156 45.8141C327.488 48.3642 328.716 50.9758 329.965 53.5692C326.306 50.2856 323.98 47.079 319.091 47.0951L317.583 49.5375C310.442 61.2816 301.01 51.6121 290.92 52.856C277.505 54.5089 275.266 57.1729 262.313 52.6469ZM108.592 480.563C119.693 468.825 121.55 462.011 130.316 450.023C132.627 465.241 129.469 479.508 128.211 494.724C127.808 499.59 127.471 508.853 125.325 513.055C124.491 504.182 129.365 482 123.033 475.487C116.513 474.454 113.55 488.884 106.885 490.469C104.992 488.991 104.014 485.735 104.021 483.491C104.098 459.127 103.253 435.426 99.3402 411.265C97.932 402.567 97.1678 392.476 94.9023 383.917L95.9525 383.119C97.5768 390.91 99.9332 398.556 101.69 406.412C107.851 433.967 108.797 452.738 108.592 480.563ZM211.922 44.7338C208.368 43.9255 194.482 40.1477 193.46 45.3694C194.605 47.2336 200.328 54.1831 201.979 54.7488C204.419 52.4008 203.684 50.5646 204.971 49.7717C209.172 47.179 219.7 51.382 221.016 46.9224C220.17 44.1668 220.099 44.2591 218.05 42.2474L216.014 40.2512C220.109 41.3091 228.42 44.0696 231.902 42.453C232.133 40.2861 231.621 39.9757 230.654 37.7633C232.082 36.66 231.46 37.1424 233.781 36.9655C245.561 37.3976 255.911 40.2903 265.072 40.6497C264.186 35.386 263.969 33.4513 261.515 28.5672L272.556 32.2633C277.577 33.9889 278.649 38.2066 282.749 39.7149L283.626 39.0667C283.7 36.5579 282.422 34.7882 281.232 32.4933L281.48 30.6796C286.186 30.8767 295.037 37.3746 299.136 39.9064C296.137 33.3953 295.216 30.6131 289.472 26.157L287.083 24.3055L288.075 24.6614C291.728 25.943 308.553 30.0663 311.567 28.2078C309.851 24.8376 293.578 17.1776 289.138 16.5295C286.709 19.011 289.875 21.0667 287.188 22.5581C283.705 22.4854 282.695 22.4057 279.304 21.6596C277.319 23.1259 277.036 26.7562 276.435 29.4734C269.122 20.0207 264.908 15.266 252.154 13.606C249.159 13.2264 246.161 12.8767 243.159 12.5565C247.228 16.0099 255.7 25.3186 253.716 31.1075C252.222 31.8284 251.011 32.1661 249.415 31.376C243.344 28.3721 241.168 26.6339 234.488 24.9963C233.997 28.2728 234.02 29.393 232.584 32.287C229.664 33.7806 223.391 28.8294 219.772 27.5526C209.341 23.8719 199.068 21.9959 188.17 20.3919C202.296 29.6832 203.137 30.0125 211.922 44.7338ZM479.68 410.232C494.16 407.521 513.69 404.473 527.562 401.004C527.688 398.503 527.828 399.777 526.268 397.137L524.779 396.649C516.5 398.478 482.994 406.236 476.981 410.169C478.771 410.534 477.876 410.513 479.68 410.232ZM456.2 187.029C485.994 184.482 523.164 174.335 552.629 167.441C562.677 165.09 572.494 161.636 582.856 159.455C580.003 159.452 575.85 159.281 573.158 159.695C543.483 162.943 473.547 173.669 447.732 187.585L456.2 187.029ZM49.681 135.065C65.6372 142.148 66.3252 143.389 83.7512 144.432C104.473 144.186 99.1829 141.626 115.161 133.129C107.83 131.334 89.2296 125.136 84.858 124.357C73.73 132.578 63.3235 134.414 49.681 135.065ZM483.197 303.018C504.054 328.106 519.011 356.622 532.862 385.875C560.999 380.679 588.415 375.503 617.02 373.232C629.732 371.906 642.926 372.534 655.428 369.964C683.145 364.267 787.539 331.275 803.747 311.367C805.243 309.529 806.62 307.178 805.984 304.718C805.103 301.286 801.194 299.191 798.237 297.84C765.311 282.81 700.402 283.973 663.441 284.909C603.015 286.783 542.791 292.834 483.197 303.018ZM541.714 398.215C557.209 394.466 586.849 388.346 600.924 383.715V383.238L597.638 383.442C586.646 384.732 545.217 390.204 537.162 394.509C537.582 396.975 537.092 396.219 538.526 397.937L541.714 398.215ZM584.017 148.749C595.1 147.888 606.56 147.873 617.398 146.969C629.872 146.632 663.434 134.092 676.048 129.897C712.862 117.582 749.655 104.506 784.742 87.7966C796.649 82.1267 809.809 74.2045 819.22 65.0881C825.975 58.5539 826.709 48.2446 818.598 42.6502C788.077 21.5897 737.237 21.1058 701.549 21.9904C679.279 22.6476 651.792 23.9698 629.907 26.5765C597.176 30.4754 516.382 44.9555 493.615 66.3516C530.478 90.8704 557.202 113.316 584.017 148.749ZM81.5186 259.539C102.408 251.15 115.941 242.406 125.337 221.164C127.565 216.126 132.445 200.421 129.645 196.232C125.275 214.988 109.888 233.856 95.9931 247.067C92.4068 250.477 83.3729 255.738 80.9152 258.987L81.5186 259.539Z" fill="black"/>
</svg>
